<svg aria-hidden="true" style="width:0;height:0;position:absolute;overflow:hidden" xmlns="http://www.w3.org/2000/svg"><defs><symbol id="icon-logo" viewBox="0 0 32 32"><path fill="none" stroke="#fff" style="stroke:var(--color1,#fff)" stroke-linejoin="round" stroke-linecap="round" stroke-width="2.667" d="M26.427 2.667H5.574a2.907 2.907 0 0 0-2.907 2.907v20.853a2.907 2.907 0 0 0 2.907 2.907h20.853a2.907 2.907 0 0 0 2.907-2.907V5.574a2.907 2.907 0 0 0-2.907-2.907zM9.333 2.667v26.667M22.667 2.667v26.667M2.667 16h26.667M2.667 9.333h6.667M2.667 22.667h6.667M22.667 22.667h6.667M22.667 9.333h6.667"/></symbol><symbol id="icon-magnifying-glass" viewBox="0 0 32 32"><path fill="none" stroke-linejoin="round" stroke-linecap="round" stroke-width="2.667" d="M14.667 25.333c5.891 0 10.667-4.776 10.667-10.667S20.558 3.999 14.667 3.999 4 8.775 4 14.666s4.776 10.667 10.667 10.667zM28.001 28l-5.8-5.8"/></symbol><symbol id="icon-sun" viewBox="0 0 32 32"><path d="M16.529 22a5.5 5.5 0 1 0 0-11 5.5 5.5 0 1 0 0 11zm0-15c-.276 0-.5.216-.5.495v2.009c0 .274.232.495.5.495.276 0 .5-.216.5-.495V7.495a.502.502 0 0 0-.5-.495zm6.738 2.791a.494.494 0 0 0-.704-.003l-1.421 1.421a.504.504 0 0 0 .003.704.494.494 0 0 0 .704.003l1.421-1.421a.504.504 0 0 0-.003-.704zm2.791 6.738c0-.276-.216-.5-.495-.5h-2.009a.502.502 0 0 0-.495.5c0 .276.216.5.495.5h2.009a.502.502 0 0 0 .495-.5zm-2.791 6.738a.494.494 0 0 0 .003-.704l-1.421-1.421a.504.504 0 0 0-.704.003.494.494 0 0 0-.003.704l1.421 1.421a.504.504 0 0 0 .704-.003zm-6.738 2.791c.276 0 .5-.216.5-.495v-2.009a.502.502 0 0 0-.5-.495c-.276 0-.5.216-.5.495v2.009c0 .274.232.495.5.495zm-6.738-2.791a.494.494 0 0 0 .704.003l1.421-1.421a.504.504 0 0 0-.003-.704.494.494 0 0 0-.704-.003l-1.421 1.421a.504.504 0 0 0 .003.704zM7 16.529c0 .276.216.5.495.5h2.009a.502.502 0 0 0 .495-.5c0-.276-.216-.5-.495-.5H7.495a.502.502 0 0 0-.495.5zm2.791-6.738a.494.494 0 0 0-.003.704l1.421 1.421a.504.504 0 0 0 .704-.003.494.494 0 0 0 .003-.704l-1.421-1.421a.504.504 0 0 0-.704.003z"/></symbol><symbol id="icon-moon" viewBox="0 0 32 32"><path d="M15.505 16.496c-1.97-1.971-2.499-4.819-1.626-7.284a6.946 6.946 0 0 0-2.616 1.626 7 7 0 0 0 9.898 9.9 6.896 6.896 0 0 0 1.626-2.616c-2.463.872-5.312.344-7.283-1.626z"/></symbol><symbol id="icon-chevrons-up" viewBox="0 0 24 24"><path d="m17.707 10.293-5-5a.999.999 0 0 0-1.414 0l-5 5a.999.999 0 1 0 1.414 1.414L12 7.414l4.293 4.293a.999.999 0 1 0 1.414-1.414zm0 7-5-5a.999.999 0 0 0-1.414 0l-5 5a.999.999 0 1 0 1.414 1.414L12 14.414l4.293 4.293a.999.999 0 1 0 1.414-1.414z"/></symbol></defs></svg>