<svg aria-hidden="true" style="width:0;height:0;position:absolute;overflow:hidden" xmlns="http://www.w3.org/2000/svg"><defs><symbol id="close" viewBox="0 0 30 30"><path stroke-width="2" d="m8 8 14 14M8 22 22 8"/></symbol><symbol id="icon-close" viewBox="0 0 20 20"><path d="m10.783 10 4.606-4.606a.557.557 0 0 0-.4-.916.559.559 0 0 0-.383.133L10 9.217 5.394 4.606a.557.557 0 0 0-.788.788L9.217 10l-4.611 4.606a.569.569 0 0 0-.194.401.551.551 0 0 0 .352.538.563.563 0 0 0 .625-.156L10 10.783l4.606 4.606a.557.557 0 0 0 .916-.4.559.559 0 0 0-.133-.383L10.783 10z"/></symbol></defs></svg>