<svg aria-hidden="true" style="position: absolute; width: 0; height: 0; overflow: hidden;" version="1.1" xmlns="http://www.w3.org/2000/svg">
<defs>
<symbol id="close" viewBox="0 0 30 30">
    <path stroke-linejoin="miter" stroke-linecap="butt" stroke-miterlimit="4" stroke-width="2" d="M8 8l14 14"></path>
    <path stroke-linejoin="miter" stroke-linecap="butt" stroke-miterlimit="4" stroke-width="2" d="M8 22l14-14"></path>
</symbol>
<symbol id="icon-close" viewBox="0 0 20 20">
      <path d="M10.783 10l4.606-4.606c0.091-0.106 0.138-0.243 0.133-0.383s-0.063-0.272-0.162-0.371c-0.099-0.099-0.232-0.157-0.371-0.162s-0.277 0.042-0.383 0.133l-4.606 4.606-4.606-4.611c-0.105-0.105-0.247-0.163-0.394-0.163s-0.29 0.059-0.394 0.163c-0.105 0.105-0.163 0.247-0.163 0.394s0.059 0.29 0.163 0.394l4.611 4.606-4.611 4.606c-0.058 0.050-0.105 0.111-0.139 0.18s-0.052 0.144-0.055 0.221c-0.003 0.077 0.010 0.153 0.038 0.224s0.070 0.136 0.124 0.19c0.054 0.054 0.119 0.097 0.19 0.124s0.148 0.041 0.224 0.038c0.077-0.003 0.152-0.022 0.221-0.055s0.13-0.081 0.18-0.139l4.611-4.606 4.606 4.606c0.106 0.091 0.243 0.138 0.383 0.133s0.272-0.063 0.371-0.162c0.099-0.099 0.157-0.232 0.162-0.371s-0.042-0.277-0.133-0.383l-4.606-4.606z"></path>
</symbol>
</defs>
</svg>
